<svg xmlns="http://www.w3.org/2000/svg" viewBox="0 0 93.24 93.24">
    <g id="Layer_2" data-name="Layer 2">
        <g id="Layer_1-2" data-name="Layer 1">
            <path d="M93.24,46.62A46.36,46.36,0,0,1,87,70c-.15.26-.31.52-.47.78-.37.62-.76,1.24-1.17,1.84-.17.25-.34.5-.53.75A46.59,46.59,0,0,1,59.24,91.51l-.67.18A46.64,46.64,0,0,1,8,72.64c-.79-1.15-1.52-2.35-2.19-3.57A46.62,46.62,0,1,1,93.24,46.62Z"
                  fill="#edddd6"/>
            <path d="M26.64,40.27S21.64,13.77,41,8.92,61.59,31.59,61.59,31.59s21.1,4,21.24,24.53C83,81.77,58.21,77.46,58.21,77.46L34.74,67.89S11.22,55.09,26.64,40.27Z"/>
            <path d="M84.8,73.35A46.59,46.59,0,0,1,59.24,91.51l-.67.18A46.64,46.64,0,0,1,8,72.64c6.26-8.56,14.11-15,19.45-17.34,7.9-3.4,20.43-5.68,32-2.37l.11,0a35,35,0,0,1,10,4.63A50.31,50.31,0,0,1,84.8,73.35Z"
                  fill="#7b65d6"/>
            <path d="M37.46,44.88v.29l.24,5.34.17,4.18s-.35,1,4.52.66C48.92,54.9,51,52.1,51,52.1l.28-9.82-2,.38Z"
                  fill="#fca397"/>
            <path d="M37.46,45.17l.24,5.34c3.18-.39,8.95-1.76,11.29-6.76a4.06,4.06,0,0,0,.34-1.07L37.48,45.09Z"/>
            <path d="M35.39,19.61s-6.07,13.9-3.88,21.71,9.3,6.59,13.56,5.08a14.09,14.09,0,0,0,6.24-4.13,6,6,0,0,0,6.63-2.35C60.61,36.22,59,32,56.7,31s-5,.67-5,.67l2.12-4S44.93,7.09,35.39,19.61Z"
                  fill="#fca397"/>
            <path d="M37.28,17.55a11.58,11.58,0,0,0,7,10.76C51.72,31.67,56.7,31,56.7,31l-.49-9.64L46.9,11.24l-8.33,2.65Z"/>
            <polygon points="51.22 29.54 51.25 33.75 55 30.05 51.22 29.54"/>
            <path d="M86.5,70.76c-.37.62-.76,1.24-1.17,1.84-.17.25-.34.5-.53.75A46.59,46.59,0,0,1,59.24,91.51l-.67.18.64-38.79.19,0,.11,0c2.3.39,17.37,3.37,25.46,15.23A23.72,23.72,0,0,1,86.5,70.76Z"
                  fill="#7b65d6"/>
            <path d="M41,55.93a24.56,24.56,0,0,1-5.32-.57.51.51,0,0,1-.36-.61.49.49,0,0,1,.6-.36c.09,0,8.91,2.12,15-2.29a.5.5,0,0,1,.59.81A17.75,17.75,0,0,1,41,55.93Z"/>
            <path d="M33.67,24.69a.5.5,0,0,1-.48-.35.5.5,0,0,1,.33-.63l2.77-.87a.5.5,0,0,1,.3,1l-2.77.86A.4.4,0,0,1,33.67,24.69Z"/>
            <path d="M52,38.16a.49.49,0,0,1-.37-.16.5.5,0,0,1,0-.71L56,33.35a.5.5,0,0,1,.67.73l-4.28,4A.5.5,0,0,1,52,38.16Z"/>
            <path d="M56.35,37.64a.45.45,0,0,1-.2,0l-2.56-1.12a.51.51,0,0,1-.26-.66.5.5,0,0,1,.66-.26l2.56,1.12a.51.51,0,0,1,.26.66A.5.5,0,0,1,56.35,37.64Z"/>
            <path d="M34.52,31.7h-.1A.51.51,0,0,1,34,31.1l.51-2.46-1-1.16a.51.51,0,0,1,.05-.71.49.49,0,0,1,.7.05l1.17,1.35a.48.48,0,0,1,.11.43L35,31.3A.49.49,0,0,1,34.52,31.7Z"/>
            <path d="M42.91,32.13H42.8a.5.5,0,0,1-.38-.6l.51-2.46-1-1.16a.49.49,0,0,1,0-.7.51.51,0,0,1,.71.05l1.16,1.34A.49.49,0,0,1,44,29l-.56,2.71A.51.51,0,0,1,42.91,32.13Z"/>
            <path d="M36.18,37.8a.5.5,0,0,1-.49-.39C34.76,33,36.92,30.72,37,30.63a.49.49,0,0,1,.7,0,.5.5,0,0,1,0,.71c-.08.09-1.86,2-1,5.87a.49.49,0,0,1-.39.59Z"/>
            <path d="M40.7,42.08c-.3,0-1-.14-2.49-1.78a.74.74,0,0,1-.17-.68.76.76,0,0,1,.53-.53c3.57-1.07,4.06-.7,4.27-.55a1,1,0,0,1,.24,1.12c-.27.91-1.4,2.36-2.29,2.42Zm-1.46-2.14a4.25,4.25,0,0,0,1.48,1.14,2,2,0,0,0,.83-.72,3,3,0,0,0,.59-1A15.19,15.19,0,0,0,39.24,39.94Z"/>
            <path d="M24,70.54c-.06.06-4.83,5.18-3.92,14.39-.29-.19-.57-.38-.85-.59l-.22-.17c-.59-9.14,4.21-14.25,4.27-14.32a.5.5,0,1,1,.72.69Z"/>
        </g>
    </g>
</svg>