<svg xmlns="http://www.w3.org/2000/svg" version="1.1" xmlns:xlink="http://www.w3.org/1999/xlink" xmlns:svgjs="http://svgjs.com/svgjs" width="512" height="512" x="0" y="0" viewBox="0 0 24 24" style="enable-background:new 0 0 512 512" xml:space="preserve" class=""><g><g xmlns="http://www.w3.org/2000/svg" id="sort"><g><path d="m21 6h-18c-.552 0-1 .447-1 1s.448 1 1 1h18c.552 0 1-.447 1-1s-.448-1-1-1z" fill="#000000" data-original="#000000" class=""></path><path d="m15 11h-12c-.552 0-1 .447-1 1s.448 1 1 1h12c.552 0 1-.447 1-1s-.448-1-1-1z" fill="#000000" data-original="#000000" class=""></path><path d="m9 16h-6c-.552 0-1 .447-1 1s.448 1 1 1h6c.552 0 1-.447 1-1s-.448-1-1-1z" fill="#000000" data-original="#000000" class=""></path></g></g></g></svg>