<svg xmlns="http://www.w3.org/2000/svg" width="207.544" height="234.742"><g data-name="Group 2666"><g data-name="Group 2588"><path data-name="Path 1258" d="m190.222 234.683-6.146-40.672a86.39 86.39 0 1 0-28.568 21.146z" fill="#fff"/><g data-name="Group 2365"><g data-name="Group 2364"><g data-name="Group 2363"><g data-name="Group 2362"><path data-name="Path 1262" d="M26.539 24.072a2.568 2.568 0 0 1-.454.054l-1.331.1c-.292.024-.62.033-.979.072l-1.168.19-1.362.224-1.52.4a25.1 25.1 0 0 0-7.337 3.308A26.044 26.044 0 0 0 .607 47.97a27.06 27.06 0 0 0-.056 3.539c.045.6.034 1.206.124 1.809s.187 1.208.281 1.819a25.983 25.983 0 0 0 2.479 7.181 27.773 27.773 0 0 0 4.708 6.445 27.192 27.192 0 0 0 6.765 4.842 24.559 24.559 0 0 0 8.232 2.517 16.229 16.229 0 0 0 2.2.186 19.838 19.838 0 0 0 2.219.039 26.293 26.293 0 0 0 4.443-.562 26.028 26.028 0 0 0 8.848-3.719l.131-.086.145.059 9.215 3.71-.391.347-2.69-9.86-.037-.134.084-.11a25.976 25.976 0 0 0 4.852-11.016 23.551 23.551 0 0 0 .373-5.657 18.139 18.139 0 0 0-.244-2.72l-.2-1.326c-.079-.435-.21-.858-.311-1.282a26.216 26.216 0 0 0-20.962-19.447c-.689-.1-1.3-.237-1.829-.278l-1.345-.091-.825-.064a1.224 1.224 0 0 1-.279-.039 1.3 1.3 0 0 1 .28-.009l.827.018 1.355.045c.536.028 1.149.147 1.846.235.347.054.718.093 1.1.167l1.2.3 1.308.332 1.378.494a25.2 25.2 0 0 1 6.121 3.229 26.361 26.361 0 0 1 10.285 14.994c.1.433.24.862.323 1.306s.139.895.209 1.347a18.528 18.528 0 0 1 .262 2.772 24 24 0 0 1-.358 5.77 26.454 26.454 0 0 1-4.92 11.262l.047-.244q1.311 4.774 2.71 9.856l.155.567-.546-.219-9.218-3.7.275-.028a26.6 26.6 0 0 1-9.05 3.808 26.929 26.929 0 0 1-4.546.574 20.2 20.2 0 0 1-2.27-.041 16.622 16.622 0 0 1-2.246-.191 25.107 25.107 0 0 1-8.417-2.583 27.669 27.669 0 0 1-6.906-4.962 28.228 28.228 0 0 1-4.793-6.6 26.46 26.46 0 0 1-2.506-7.338l-.28-1.859c-.088-.615-.077-1.235-.119-1.845a26.038 26.038 0 0 1 4.449-15.876 26.783 26.783 0 0 1 7.713-7.512 24.944 24.944 0 0 1 7.458-3.251l1.538-.383 1.377-.2 1.181-.165c.361-.031.691-.03.986-.044l1.338-.038a2.525 2.525 0 0 1 .456.012z" fill="#263238"/></g></g></g></g><g data-name="Group 2587"><g data-name="Group 2502"><g data-name="Group 2367"><g data-name="Group 2366"><path data-name="Path 1263" d="M123.549 8.15a13.825 13.825 0 0 1 24.807-.828c1.432 2.7 2 5.909 4.07 8.154a8.09 8.09 0 0 0 10.4.973 7.039 7.039 0 0 1-4.391 8.11l5.079.52c-2.741 5.981-10.245 8.72-16.734 7.552s-12-5.46-16.417-10.343" fill="#263238"/></g></g><g data-name="Group 2487"><g data-name="Group 2369"><g data-name="Group 2368"><path data-name="Path 1264" d="m123.585 8.234 15.67 5.131a30.513 30.513 0 0 1 12.066 15.229c.734 2.114 1.234 4.314 2.161 6.351a9.385 9.385 0 0 0 4.412 4.869c1.506.672 3.213.75 4.76 1.32a8.7 8.7 0 0 1 5.257 6.063 10.529 10.529 0 0 1-1.421 8c-.742 1.181-1.731 2.325-1.8 3.717a10.075 10.075 0 0 0 .572 2.757 7.584 7.584 0 0 1-12.449 7.393c-1 2.3-2.335 4.671-4.605 5.753s-5.619.109-6.091-2.355a6 6 0 0 1-11.392-2.157L87.782 23.464C94.196 6.325 119.26 7.84 123.585 8.234z" fill="#263238"/></g></g><g data-name="Group 2486"><g data-name="Group 2485"><g data-name="Group 2468"><g data-name="Group 2467"><g data-name="Group 2450"><g data-name="Group 2449"><g data-name="Group 2448"><g data-name="Group 2377"><g data-name="Group 2376"><g data-name="Group 2375"><g data-name="Group 2374"><g data-name="Group 2373"><g data-name="Group 2372"><g data-name="Group 2371"><g data-name="Group 2370"><path data-name="Path 1265" d="M130.854 24.525a5.345 5.345 0 0 1 4.79 5.416l-3.034 72.121c-.115 8.517-15.609 18.589-24.751 18.4-9.234-.194-6.519-9.968-6.652-18.07-.223-13.537-.218-18.619-.223-18.542 0 0-11.667-1.932-14.084-17.114-1.2-7.55-.821-19.929-.183-30.048.575-9.108 6.626-20.283 15.724-19.323z" fill="#ffbe9d"/></g></g></g></g></g></g></g></g><g data-name="Group 2395"><g data-name="Group 2385"><g data-name="Group 2384"><g data-name="Group 2383"><g data-name="Group 2382"><g data-name="Group 2381"><g data-name="Group 2380"><g data-name="Group 2379"><g data-name="Group 2378"><path data-name="Path 1266" d="M90.676 46.514a1.949 1.949 0 0 0 1.883 1.964 1.865 1.865 0 0 0 2.011-1.755 1.949 1.949 0 0 0-1.879-1.965 1.867 1.867 0 0 0-2.015 1.756z" fill="#263238"/></g></g></g></g></g></g></g></g><g data-name="Group 2394"><g data-name="Group 2393"><g data-name="Group 2392"><g data-name="Group 2391"><g data-name="Group 2390"><g data-name="Group 2389"><g data-name="Group 2388"><g data-name="Group 2387"><g data-name="Group 2386"><path data-name="Path 1267" d="M89.414 43.126c.242.254 1.721-.837 3.822-.832 2.1-.025 3.64 1.052 3.868.8.113-.114-.134-.572-.805-1.059a5.359 5.359 0 0 0-3.1-.952 5.152 5.152 0 0 0-3.042.98c-.643.49-.862.949-.743 1.063z" fill="#263238"/></g></g></g></g></g></g></g></g></g></g><g data-name="Group 2413"><g data-name="Group 2403"><g data-name="Group 2402"><g data-name="Group 2401"><g data-name="Group 2400"><g data-name="Group 2399"><g data-name="Group 2398"><g data-name="Group 2397"><g data-name="Group 2396"><path data-name="Path 1268" d="M111.212 46.515a1.949 1.949 0 0 0 1.883 1.964 1.865 1.865 0 0 0 2.011-1.755 1.949 1.949 0 0 0-1.88-1.965 1.866 1.866 0 0 0-2.014 1.756z" fill="#263238"/></g></g></g></g></g></g></g></g><g data-name="Group 2412"><g data-name="Group 2411"><g data-name="Group 2410"><g data-name="Group 2409"><g data-name="Group 2408"><g data-name="Group 2407"><g data-name="Group 2406"><g data-name="Group 2405"><g data-name="Group 2404"><path data-name="Path 1269" d="M110.063 43.517c.242.254 1.723-.837 3.822-.832 2.1-.024 3.641 1.053 3.869.8.111-.114-.132-.572-.806-1.06a5.374 5.374 0 0 0-3.1-.952 5.164 5.164 0 0 0-3.043.98c-.64.487-.856.95-.742 1.064z" fill="#263238"/></g></g></g></g></g></g></g></g></g></g><g data-name="Group 2422"><g data-name="Group 2421"><g data-name="Group 2420"><g data-name="Group 2419"><g data-name="Group 2418"><g data-name="Group 2417"><g data-name="Group 2416"><g data-name="Group 2415"><g data-name="Group 2414"><path data-name="Path 1270" d="M102.439 59.056a13.994 13.994 0 0 0-3.412-.613c-.536-.055-1.044-.162-1.135-.527a2.721 2.721 0 0 1 .358-1.585l1.587-4.075c2.2-5.8 3.8-10.57 3.563-10.656s-2.212 4.545-4.414 10.346q-.8 2.145-1.52 4.1a3.084 3.084 0 0 0-.278 2.1 1.342 1.342 0 0 0 .881.782 3.618 3.618 0 0 0 .912.126 13.634 13.634 0 0 0 3.458.002z" fill="#263238"/></g></g></g></g></g></g></g></g></g><g data-name="Group 2430"><g data-name="Group 2429"><g data-name="Group 2428"><g data-name="Group 2427"><g data-name="Group 2426"><g data-name="Group 2425"><g data-name="Group 2424"><g data-name="Group 2423"><path data-name="Path 1271" d="M100.988 83.849a38.808 38.808 0 0 0 20.39-5.426s-4.946 10.429-20.18 9.009z" fill="#eb996e"/></g></g></g></g></g></g></g></g><g data-name="Group 2438"><g data-name="Group 2437"><g data-name="Group 2436"><g data-name="Group 2435"><g data-name="Group 2434"><g data-name="Group 2433"><g data-name="Group 2432"><g data-name="Group 2431"><path data-name="Path 1272" d="M103.328 64.104a3.789 3.789 0 0 1 3.393-1.4 3.455 3.455 0 0 1 2.386 1.276 2.18 2.18 0 0 1 .167 2.5 2.545 2.545 0 0 1-2.753.695 7.96 7.96 0 0 1-2.684-1.6 2.312 2.312 0 0 1-.6-.619.7.7 0 0 1 0-.78" fill="#eb996e"/></g></g></g></g></g></g></g></g><g data-name="Group 2447"><g data-name="Group 2446"><g data-name="Group 2445"><g data-name="Group 2444"><g data-name="Group 2443"><g data-name="Group 2442"><g data-name="Group 2441"><g data-name="Group 2440"><g data-name="Group 2439"><path data-name="Path 1273" d="M108.621 60.503c-.341-.02-.346 2.255-2.3 3.869s-4.379 1.363-4.4 1.682c-.031.142.542.442 1.568.47a5.691 5.691 0 0 0 3.67-1.275 4.934 4.934 0 0 0 1.78-3.244c.092-.951-.162-1.514-.318-1.502z" fill="#263238"/></g></g></g></g></g></g></g></g></g></g></g></g><g data-name="Group 2458"><g data-name="Group 2457"><g data-name="Group 2456"><g data-name="Group 2455"><g data-name="Group 2454"><g data-name="Group 2453"><g data-name="Group 2452"><g data-name="Group 2451"><path data-name="Path 1274" d="M109.116 39.848c.208.569 2.305.3 4.769.6 2.471.247 4.458.967 4.785.456.146-.245-.2-.78-1-1.331a8.378 8.378 0 0 0-7.279-.8c-.907.353-1.363.804-1.275 1.075z" fill="#263238"/></g></g></g></g></g></g></g></g><g data-name="Group 2466"><g data-name="Group 2465"><g data-name="Group 2464"><g data-name="Group 2463"><g data-name="Group 2462"><g data-name="Group 2461"><g data-name="Group 2460"><g data-name="Group 2459"><path data-name="Path 1275" d="M90.187 37.062c.369.476 1.816-.018 3.556-.041 1.739-.084 3.214.319 3.553-.178.148-.241-.084-.718-.727-1.169a5.166 5.166 0 0 0-5.728.177c-.615.488-.817.979-.654 1.211z" fill="#263238"/></g></g></g></g></g></g></g></g></g></g><g data-name="Group 2473"><g data-name="Group 2472"><g data-name="Group 2471"><g data-name="Group 2470"><g data-name="Group 2469"><path data-name="Path 1276" d="M133.963 48.809a3.824 3.824 0 0 1 3.98.2 7.037 7.037 0 0 1-4.448 13.071" fill="#ffbe9d"/></g></g></g></g></g><g data-name="Group 2478"><g data-name="Group 2477"><g data-name="Group 2476"><g data-name="Group 2475"><g data-name="Group 2474"><path data-name="Path 1277" d="M110.032 12.307c-5.547.184-9.754 1.867-14.624 4.525s-8.941 7.041-10.441 12.372a4.311 4.311 0 0 0 .123 3.42c.82 1.318 2.757 1.537 4.174.9a9.778 9.778 0 0 0 3.4-3.122 6.511 6.511 0 0 0 12.638-.141c.023 2.915 2.947 5.325 5.869 5.221a7.522 7.522 0 0 0 6.478-5.1c.542 2.59 1.122 5.268 2.678 7.412s4.368 3.619 6.891 2.8c-.357 2.262-.705 4.644.1 6.789s3.194 3.883 5.367 3.139c2.109-.723 2.927-3.214 3.421-5.383a50.544 50.544 0 0 0 1.631-12.725 18.659 18.659 0 0 0-15.076-18.894 49.486 49.486 0 0 0-13.248-1.2" fill="#263238"/></g></g></g></g></g><g data-name="Group 2484"><g data-name="Group 2483"><g data-name="Group 2482"><g data-name="Group 2481"><g data-name="Group 2480"><g data-name="Group 2479"><path data-name="Path 1278" d="M135.026 57.551c.042-.108.592.13 1.326-.207a2.641 2.641 0 0 0 1.306-2.594 2.681 2.681 0 0 0-1.624-2.435c-.762-.311-1.322-.159-1.353-.277-.054-.075.517-.478 1.522-.254a2.8 2.8 0 0 1 1.488.926 3.386 3.386 0 0 1 .756 2 3.015 3.015 0 0 1-1.909 3.156c-1.033.273-1.593-.253-1.512-.315z" fill="#eb996e"/></g></g></g></g></g></g></g></g></g><g data-name="Group 2489"><g data-name="Group 2488" transform="translate(133.495 59.969)"><ellipse data-name="Ellipse 43" cx="1.985" cy="1.98" rx="1.985" ry="1.98" fill="#e8505b"/></g></g><g data-name="Group 2492"><g data-name="Group 2491"><g data-name="Group 2490"><path data-name="Path 1279" d="M123.789 7.464a5.9 5.9 0 0 1 2.472-.281 12.759 12.759 0 0 1 10.123 5.833 5.883 5.883 0 0 1 .994 2.281c-.1.041-.468-.83-1.344-2.045a13.954 13.954 0 0 0-9.8-5.648c-1.492-.15-2.432-.034-2.445-.14z" fill="#e8505b"/></g></g></g><g data-name="Group 2495"><g data-name="Group 2494"><g data-name="Group 2493"><path data-name="Path 1280" d="M131.746 7.472a1.422 1.422 0 0 1-.054-.478 3.565 3.565 0 0 1 .291-1.352 5.538 5.538 0 0 1 3.931-3.043c2.171-.592 4.921.521 6.83 2.622a14.982 14.982 0 0 1 2.475 3.692c.678 1.381 1.228 2.866 1.811 4.361a28.263 28.263 0 0 0 1.949 4.217 12 12 0 0 0 2.766 3.23 7.2 7.2 0 0 0 3.439 1.567 5.869 5.869 0 0 0 3.244-.453 6.955 6.955 0 0 0 3.423-3.327 15.188 15.188 0 0 0 .561-1.723 1.47 1.47 0 0 1-.009.479 5.544 5.544 0 0 1-.338 1.336 6.972 6.972 0 0 1-3.461 3.619 6.245 6.245 0 0 1-3.489.559 7.65 7.65 0 0 1-3.71-1.624 12.4 12.4 0 0 1-2.928-3.361 27.918 27.918 0 0 1-2-4.3c-1.141-3.006-2.244-5.887-4.134-7.9-1.811-2.022-4.324-3.077-6.338-2.582a5.389 5.389 0 0 0-3.806 2.725 5.637 5.637 0 0 0-.453 1.736z" fill="#455a64"/></g></g></g><g data-name="Group 2498"><g data-name="Group 2497"><g data-name="Group 2496"><path data-name="Path 1281" d="M103.068 30.919a1.222 1.222 0 0 1-.1-.418 10.285 10.285 0 0 1-.14-1.218 17.645 17.645 0 0 1 .281-4.5 20.2 20.2 0 0 1 2.326-6.283 19.236 19.236 0 0 1 5.51-6.076 22.331 22.331 0 0 1 7.479-3.371 22.1 22.1 0 0 1 6.662-.681 16.446 16.446 0 0 1 4.438.809 9.251 9.251 0 0 1 1.141.453c.255.116.385.186.376.2a23.313 23.313 0 0 0-5.972-1.043 22.781 22.781 0 0 0-6.507.793 22.47 22.47 0 0 0-7.271 3.325 19.166 19.166 0 0 0-5.379 5.866 20.725 20.725 0 0 0-2.388 6.089 27.752 27.752 0 0 0-.456 6.055z" fill="#455a64"/></g></g></g><g data-name="Group 2501"><g data-name="Group 2500"><g data-name="Group 2499"><path data-name="Path 1282" d="M112.658 29.897a3.978 3.978 0 0 1-.041-1.182 17.7 17.7 0 0 1 .441-3.2 20.39 20.39 0 0 1 13.906-14.976 17.823 17.823 0 0 1 3.151-.683 3.951 3.951 0 0 1 1.182-.049c.017.113-1.668.25-4.2 1.135a21.178 21.178 0 0 0-13.628 14.683c-.688 2.589-.698 4.28-.811 4.272z" fill="#455a64"/></g></g></g></g><g data-name="Group 2586"><g data-name="Group 2504"><g data-name="Group 2503"><path data-name="Path 1283" d="M110.031 119.571c-3.323-10.186-11.451-20.56-20.381-16.818-9.939 4.165-12.7 9.444-18.149 17.624s-8.787 17.544-12.077 26.8c-1.286 3.621-2.527 7.82-.555 11.12 1.7 2.844 5.2 3.97 8.413 4.823q12.416 3.3 25.062 5.654c3.378.628 7.085 1.156 10.072-.54 3.8-2.153 4.952-6.971 5.742-11.255l8.321-45.087" fill="#7b65d6"/></g></g><g data-name="Group 2512"><g data-name="Group 2508"><g data-name="Group 2507"><g data-name="Group 2506"><g data-name="Group 2505"><path data-name="Path 1284" d="m100.472 97.868-13.075 5.638c-6.608 5.2-8.477 14.116-8.252 22.51l-5.437 92.052s38.136 23.572 82.7-1.079c1.161-.642-7.462-21.7-7.462-21.7l12.139-45.966c.935-6.609 1.506-20.312-.218-26.816-4.425-16.681-16.255-21.671-28.407-25.012 0 0-12.156 10.2-24.015 8.051.002.004-7.234-.668-7.973-7.678z" fill="#7b65d6"/></g></g></g></g><g data-name="Group 2511" opacity=".2"><g data-name="Group 2510"><g data-name="Group 2509"><path data-name="Path 1285" d="m82.912 174.505 22.626 32.792c2.95 4.274 6.016 8.663 10.392 11.459a19.56 19.56 0 0 0 29.79-19.908 4.71 4.71 0 0 0-1.005-2.447 3.832 3.832 0 0 0-3.865-.74 20.792 20.792 0 0 0-3.7 1.849c-7.106 3.771-16.13 1.745-22.8-2.757s-11.559-11.105-16.663-17.322c-1.887-2.3-3.948-4.653-6.74-5.68s-6.5-.187-7.682 2.542"/></g></g></g></g><g data-name="Group 2514"><g data-name="Group 2513" transform="translate(113.211 113.82)"><ellipse data-name="Ellipse 44" cx="7.812" cy="7.792" rx="7.812" ry="7.792" fill="#fff"/></g></g><g data-name="Group 2516"><g data-name="Group 2515"><path data-name="Path 1286" d="M84.611 114.964a7.813 7.813 0 1 0 7.812-7.793 7.8 7.8 0 0 0-7.812 7.793z" fill="#fff"/></g></g><g data-name="Group 2518"><g data-name="Group 2517"><path data-name="Path 1287" d="M78.308 189.576a7.812 7.812 0 1 0 7.812-7.791 7.8 7.8 0 0 0-7.812 7.791z" fill="#fff"/></g></g><g data-name="Group 2520"><g data-name="Group 2519" transform="translate(92.423 204.218)"><ellipse data-name="Ellipse 45" cx="7.812" cy="7.792" rx="7.812" ry="7.792" fill="#fff"/></g></g><g data-name="Group 2522"><g data-name="Group 2521" transform="translate(128.836 206.109)"><ellipse data-name="Ellipse 46" cx="7.812" cy="7.792" rx="7.812" ry="7.792" fill="#fff"/></g></g><g data-name="Group 2524"><g data-name="Group 2523" transform="translate(97.986 158.134)"><ellipse data-name="Ellipse 47" cx="7.812" cy="7.792" rx="7.812" ry="7.792" fill="#fff"/></g></g><g data-name="Group 2526"><g data-name="Group 2525" transform="translate(90.174 133.565)"><ellipse data-name="Ellipse 48" cx="7.812" cy="7.792" rx="7.812" ry="7.792" fill="#fff"/></g></g><g data-name="Group 2529"><g data-name="Group 2528"><g data-name="Group 2527"><path data-name="Path 1288" d="M97.988 99.761a18.514 18.514 0 0 0 4.026 4.955 18.212 18.212 0 0 0 6.059 3.286 20.265 20.265 0 0 0 8.376.852 25.292 25.292 0 0 0 8.106-2.455 33.543 33.543 0 0 0 5.892-3.717 46.983 46.983 0 0 0 3.569-3.088 10.833 10.833 0 0 1 1.284-1.174 8.533 8.533 0 0 1-1.119 1.337 35.242 35.242 0 0 1-3.471 3.254 31.676 31.676 0 0 1-5.909 3.881 25.07 25.07 0 0 1-8.283 2.555 20.3 20.3 0 0 1-8.617-.922 17.989 17.989 0 0 1-6.161-3.488 14.025 14.025 0 0 1-3.032-3.684 8.919 8.919 0 0 1-.57-1.166 1.316 1.316 0 0 1-.15-.426z" fill="#263238"/></g></g></g><g data-name="Group 2553"><g data-name="Group 2531"><g data-name="Group 2530"><path data-name="Path 1289" d="M137.348 99.229c8.933 3.734 18.231 7.732 24.4 15.18 6.272 7.571 8.456 17.857 8 27.667s-3.313 19.33-6.148 28.735c-1.108 3.678-2.6 7.8-6.143 9.3-3.059 1.291-6.551.133-9.645-1.072q-11.97-4.657-23.563-10.219c-3.1-1.485-6.4-3.247-7.8-6.375-1.785-3.974.14-8.543 2.041-12.463l20.016-41.269" fill="#7b65d6"/></g></g><g data-name="Group 2533"><g data-name="Group 2532" transform="translate(148.596 139.04)"><ellipse data-name="Ellipse 49" cx="7.812" cy="7.792" rx="7.812" ry="7.792" fill="#fff"/></g></g><g data-name="Group 2535"><g data-name="Group 2534" transform="translate(127.907 153.285)"><ellipse data-name="Ellipse 50" cx="7.812" cy="7.792" rx="7.812" ry="7.792" fill="#fff"/></g></g><g data-name="Group 2537"><g data-name="Group 2536"><path data-name="Path 1290" d="M137.786 122.827a7.66 7.66 0 1 0 7.66-7.64 7.651 7.651 0 0 0-7.66 7.64z" fill="#fff"/></g></g><g data-name="Group 2549"><g data-name="Group 2539"><g data-name="Group 2538"><path data-name="Path 1291" d="m121.911 167.611-1.993 7.671-39.695-28.933-12.152-17.272a10.955 10.955 0 0 0-6.864-4.445 10.979 10.979 0 0 0-8.45 1.82l-11.311 8.025s.3 6.091 3.053 4.873 8.244-4.263 8.244-4.263l1.527 14.618 6.717 4.873 6.717 5.177 44.82 44.491a20.016 20.016 0 0 0 31.979-5.214l6.642-18.858z" fill="#ffbe9d"/></g></g><g data-name="Group 2542"><g data-name="Group 2541"><g data-name="Group 2540"><path data-name="Path 1292" d="M118.918 174.19a3.308 3.308 0 0 1 1.667 1.026 8.72 8.72 0 0 1 2.321 4.111 16.288 16.288 0 0 1 .431 4.678 5.841 5.841 0 0 1-.231 1.924 6.852 6.852 0 0 1-.192-1.922 22.48 22.48 0 0 0-.586-4.528 9.769 9.769 0 0 0-2.047-3.97c-.768-.865-1.413-1.234-1.363-1.319z" fill="#eb996e"/></g></g></g><g data-name="Group 2545"><g data-name="Group 2544"><g data-name="Group 2543"><path data-name="Path 1293" d="M52.675 135.84c-.064-.043.128-.51.6-1.185a5.341 5.341 0 0 1 2.52-2.037 3.27 3.27 0 0 1 3.2.616c.65.625.627 1.241.566 1.231-.1.034-.231-.473-.836-.906a3.146 3.146 0 0 0-2.736-.374 6.126 6.126 0 0 0-2.385 1.736c-.537.58-.857.968-.929.919z" fill="#eb996e"/></g></g></g><g data-name="Group 2548"><g data-name="Group 2547"><g data-name="Group 2546"><path data-name="Path 1294" d="M59.78 139.741c-.068.061-.369-.213-.913-.515a4.491 4.491 0 0 0-4.562.018c-.542.307-.841.582-.909.521-.059-.045.134-.434.67-.872a4.08 4.08 0 0 1 5.037-.02c.539.434.734.824.677.868z" fill="#eb996e"/></g></g></g></g><g data-name="Group 2552"><g data-name="Group 2551"><g data-name="Group 2550"><path data-name="Path 1295" d="M121.911 167.611a2.259 2.259 0 0 1-.763-.183 4.242 4.242 0 0 1-1.793-1.358 6.53 6.53 0 0 1-1.3-3.314 9.616 9.616 0 0 1 .843-4.641c.651-1.63 1.63-3.269 2.463-5.108a49.766 49.766 0 0 0 2.272-6.05c1.36-4.356 2.341-9.3 3.715-14.413a45.8 45.8 0 0 1 5.8-13.754 22.4 22.4 0 0 1 9.122-8.019 16.508 16.508 0 0 1 8.034-1.63 10.471 10.471 0 0 1 2.962.563c-.015.074-1.05-.261-2.973-.33a16.843 16.843 0 0 0-7.842 1.779 22.252 22.252 0 0 0-8.845 7.943 46.131 46.131 0 0 0-5.679 13.6c-1.366 5.086-2.365 10.037-3.765 14.42a48.848 48.848 0 0 1-2.349 6.095c-.867 1.861-1.862 3.48-2.521 5.061a9.4 9.4 0 0 0-.9 4.445 6.394 6.394 0 0 0 1.158 3.206 4.348 4.348 0 0 0 1.654 1.389c.445.224.715.264.707.299z" fill="#263238"/></g></g></g></g><g data-name="Group 2556"><g data-name="Group 2555"><g data-name="Group 2554"><path data-name="Path 1296" d="M77.857 142.67c-.164-.021.276-4.48.983-9.959s1.412-9.9 1.576-9.883-.277 4.48-.983 9.96a84.088 84.088 0 0 1-1.576 9.882z" fill="#263238"/></g></g></g><g data-name="Group 2582"><g data-name="Group 2562"><g data-name="Group 2558"><g data-name="Group 2557"><path data-name="Path 1297" d="m60.004 159.729-2.108 16.586-25.293-21.556-13.833 3.344s14.263 29.948 25.53 41.81 17.344 13.549 21.595 13.735c5.846.256 8.517-6.862 8.517-6.862l2.547-41.225z" fill="#ffbe9d"/></g></g><g data-name="Group 2561"><g data-name="Group 2560"><g data-name="Group 2559"><path data-name="Path 1298" d="M57.993 175.873a16.414 16.414 0 0 1 2.374 8.593c-.172.021-.512-1.945-1.169-4.3s-1.364-4.222-1.205-4.293z" fill="#eb996e"/></g></g></g></g><g data-name="Group 2567"><g data-name="Group 2564"><g data-name="Group 2563"><path data-name="Path 1299" d="M30.159 112.718H11.12c-2.88 0-5.452 3.339-4.417 6.068l19.146 37.291a4.335 4.335 0 0 0 3.857 2.355l23.21-.049a3.323 3.323 0 0 0 2.531-4.913l-18.474-36.508a7.586 7.586 0 0 0-6.814-4.244z" fill="#455a64"/></g></g><g data-name="Group 2566"><g data-name="Group 2565"><path data-name="Path 1300" d="M28.874 114.964H9.835a3.185 3.185 0 0 0-2.843 4.634l18.691 36.481a4.332 4.332 0 0 0 3.856 2.355h22.946a1.874 1.874 0 0 0 1.677-2.717l-18.474-36.51a7.587 7.587 0 0 0-6.814-4.243z" fill="#263238"/></g></g></g><g data-name="Group 2579"><g data-name="Group 2569"><g data-name="Group 2568"><path data-name="Path 1301" d="m27.259 130.236-11.587 4.629-2.483 9.335 5.581 13.9 20.475 2.977-6-6.128.772-5.336s5.712-1.792 5.854-2.666-.709-3.806-1.585-3.946-6.868 2.089-6.868 2.089 7.092-5.614 6.894-6.515-.96-3.208-2.375-3.463-12.857 5.137-12.857 5.137l-1.859 4.235-1.621-6.774s10.171-2.851 7.659-7.474z" fill="#ffbe9d"/></g></g><g data-name="Group 2572"><g data-name="Group 2571"><g data-name="Group 2570"><path data-name="Path 1302" d="M28.716 152.125c-.069.021-.286-.4-.393-1.154a6.293 6.293 0 0 1 1.988-5.37c.571-.5 1.01-.682 1.049-.621a8.871 8.871 0 0 0-2.644 7.146z" fill="#eb996e"/></g></g></g><g data-name="Group 2575"><g data-name="Group 2574"><g data-name="Group 2573"><path data-name="Path 1303" d="M23.21 150.102a25.169 25.169 0 0 0 .459-3.036 13.25 13.25 0 0 1 .582-3.362 4.994 4.994 0 0 1 1.067-1.794 5.291 5.291 0 0 1 1.893-1.19 208.55 208.55 0 0 1 7.093-2.409 15.936 15.936 0 0 1 2.991-.824 15.943 15.943 0 0 1-2.852 1.223c-1.779.688-4.289 1.578-7.008 2.564a4.831 4.831 0 0 0-1.7 1.044 4.547 4.547 0 0 0-.971 1.577 14.6 14.6 0 0 0-.679 3.22 6.183 6.183 0 0 1-.875 2.987z" fill="#eb996e"/></g></g></g><g data-name="Group 2578"><g data-name="Group 2577"><g data-name="Group 2576"><path data-name="Path 1304" d="M20.553 148.008c-.163-.026-.13-1.049.074-2.284s.5-2.215.664-2.187.131 1.049-.074 2.285-.502 2.213-.664 2.186z" fill="#eb996e"/></g></g></g></g><g data-name="Group 2581"><g data-name="Group 2580"><path data-name="Path 1305" d="M20.241 122a2.426 2.426 0 1 0 2.426-2.426A2.425 2.425 0 0 0 20.241 122z" fill="#fafafa"/></g></g></g><g data-name="Group 2585"><g data-name="Group 2584"><g data-name="Group 2583"><path data-name="Path 1306" d="M67.705 159.749a3.917 3.917 0 0 1 .708.563l1.9 1.7 6.684 6.179.09.083-.01.128c-.3 3.868-.656 8.416-1.034 13.28-.525 7.125-.935 13.58-1.164 18.253-.1 2.263-.185 4.131-.248 5.537a13.173 13.173 0 0 1-.137 2.032 13.247 13.247 0 0 1-.1-2.035c-.017-1.311-.008-3.207.059-5.549.121-4.685.464-11.15.989-18.281.36-4.883.75-9.445 1.121-13.283l.079.209-6.538-6.335-1.8-1.8a3.921 3.921 0 0 1-.599-.681z" fill="#eb996e"/></g></g></g></g></g></g><g data-name="Group 2590"><g data-name="Group 2589"><path data-name="Path 1307" d="M27.95 50.039a5.961 5.961 0 0 0 3.551-5.514 5.6 5.6 0 1 0-11.178-.051 5.952 5.952 0 0 0 3.562 5.565c-8.6 1.295-8.211 10.643-8.211 10.643l20.338.093s.464-9.449-8.062-10.736z" fill="#7b65d6"/></g></g></g></svg>