<svg xmlns="http://www.w3.org/2000/svg" xmlns:xlink="http://www.w3.org/1999/xlink" version="1.1" width="940" height="788" viewBox="0 0 940 788" xml:space="preserve">
<desc>Created with Fabric.js 3.5.0</desc>
<defs>
</defs>
<rect x="0" y="0" width="100%" height="100%" fill="rgba(112,17,112,0)"/>
<g transform="matrix(1.4409 0 0 1.4409 469.9965 393.9965)" id="436610">
<g style="" vector-effect="non-scaling-stroke">
		<g transform="matrix(1 0 0 1 -9.512 3.8816)" id="591106">
<path style="stroke: none; stroke-width: 1; stroke-dasharray: none; stroke-linecap: butt; stroke-dashoffset: 0; stroke-linejoin: miter; stroke-miterlimit: 4; is-custom-font: none; font-file-url: none; fill: rgb(255,209,92); fill-rule: nonzero; opacity: 1;" transform=" translate(-246.488, -259.8816)" d="M 262.048 244.322 c 8.59 8.59 8.59 22.52 0 31.12 c -8.59 8.59 -22.521 8.59 -31.12 0 c -8.59 -8.6 -8.59 -22.53 0 -31.12 C 239.527 235.731 253.458 235.731 262.048 244.322 z" stroke-linecap="round"/>
</g>
		<g transform="matrix(1 0 0 1 -10.0547 1.7727)" id="195788">
<path style="stroke: none; stroke-width: 1; stroke-dasharray: none; stroke-linecap: butt; stroke-dashoffset: 0; stroke-linejoin: miter; stroke-miterlimit: 4; is-custom-font: none; font-file-url: none; fill: rgb(239,189,80); fill-rule: nonzero; opacity: 1;" transform=" translate(-245.9452, -257.7727)" d="M 238.928 255.321 c 7.768 -7.76 19.873 -8.485 28.476 -2.227 c -1.037 -3.207 -2.81 -6.227 -5.355 -8.773 c -8.59 -8.59 -22.521 -8.59 -31.12 0 c -8.59 8.59 -8.59 22.52 0 31.12 c 0.832 0.83 1.725 1.556 2.646 2.226 C 231.111 270.052 232.882 261.366 238.928 255.321 z" stroke-linecap="round"/>
</g>
		<g transform="matrix(1 0 0 1 -46.6054 42.1909)" id="862900">
<path style="stroke: none; stroke-width: 1; stroke-dasharray: none; stroke-linecap: butt; stroke-dashoffset: 0; stroke-linejoin: miter; stroke-miterlimit: 4; is-custom-font: none; font-file-url: none; fill: rgb(174,211,229); fill-rule: nonzero; opacity: 1;" transform=" translate(-209.3946, -298.1909)" d="M 354.479 345.571 c 28.25 28.25 28.039 74.24 -0.49 102.771 c -87.66 87.649 -381.791 -207.87 -294.831 -294.83 c 28.53 -28.53 74.52 -28.74 102.77 -0.49 c 28.24 28.25 28.03 74.23 -0.5 102.76 c -2.06 2.06 -4.19 3.97 -6.42 5.709 l 90.97 90.961 c 1.77 -2.2 3.65 -4.36 5.7 -6.41 C 280.218 317.502 326.229 317.321 354.479 345.571 z" stroke-linecap="round"/>
</g>
		<g transform="matrix(1 0 0 1 -97.382 38.6798)" id="691070">
<path style="stroke: none; stroke-width: 1; stroke-dasharray: none; stroke-linecap: butt; stroke-dashoffset: 0; stroke-linejoin: miter; stroke-miterlimit: 4; is-custom-font: none; font-file-url: none; fill: rgb(152,194,211); fill-rule: nonzero; opacity: 1;" transform=" translate(-158.618, -294.6797)" d="M 74.249 159.342 c 19.115 -19.116 46.065 -25.498 70.269 -19.144 c -27.371 -14.362 -62.145 -9.901 -85.36 13.314 c -68.132 68.132 97.666 264.279 214.816 303.872 C 158.32 407.276 8.996 224.594 74.249 159.342 z" stroke-linecap="round"/>
</g>
		<g transform="matrix(1 0 0 1 104.203 -108.733)" id="295025">
<path style="stroke: none; stroke-width: 1; stroke-dasharray: none; stroke-linecap: butt; stroke-dashoffset: 0; stroke-linejoin: miter; stroke-miterlimit: 4; is-custom-font: none; font-file-url: none; fill: rgb(239,62,92); fill-rule: nonzero; opacity: 1;" transform=" translate(-360.203, -147.267)" d="M 414.418 47.592 c 30.021 0 54.32 25.02 54.32 55.85 c 0 55.85 -54.32 87.65 -108.57 143.5 c -54.25 -55.85 -108.5 -87.65 -108.5 -143.5 c 0 -30.83 24.3 -55.85 54.25 -55.85 c 27.13 0 40.69 13.96 54.25 41.89 C 373.738 61.552 387.298 47.592 414.418 47.592 z" stroke-linecap="round"/>
</g>
		<g transform="matrix(1 0 0 1 52.3665 -108.733)" id="498186">
<path style="stroke: none; stroke-width: 1; stroke-dasharray: none; stroke-linecap: butt; stroke-dashoffset: 0; stroke-linejoin: miter; stroke-miterlimit: 4; is-custom-font: none; font-file-url: none; fill: rgb(228,42,83); fill-rule: nonzero; opacity: 1;" transform=" translate(-308.3665, -147.267)" d="M 271.946 113.734 c 0 -30.83 24.3 -55.85 54.25 -55.85 c 4.836 0 9.234 0.452 13.284 1.339 c -8.744 -7.751 -19.269 -11.631 -33.563 -11.631 c -29.95 0 -54.25 25.02 -54.25 55.85 c 0 55.85 54.25 87.65 108.5 143.5 c 1.634 -1.682 3.268 -3.341 4.899 -4.98 C 316.4 195.141 271.946 164.29 271.946 113.734 z" stroke-linecap="round"/>
</g>
		<g transform="matrix(1 0 0 1 -69.984 203.408)" id="430979">
<path style="stroke: none; stroke-width: 1; stroke-dasharray: none; stroke-linecap: butt; stroke-dashoffset: 0; stroke-linejoin: miter; stroke-miterlimit: 4; is-custom-font: none; font-file-url: none; fill: rgb(174,211,229); fill-rule: nonzero; opacity: 1;" transform=" translate(-186.016, -459.408)" d="M 312.871 464.408 H 59.161 c -2.761 0 -5 -2.238 -5 -5 s 2.239 -5 5 -5 h 253.71 c 2.762 0 5 2.238 5 5 S 315.633 464.408 312.871 464.408 z" stroke-linecap="round"/>
</g>
		<g transform="matrix(1 0 0 1 -108.532 -138.9784)" id="636113">
<path style="stroke: none; stroke-width: 1; stroke-dasharray: none; stroke-linecap: butt; stroke-dashoffset: 0; stroke-linejoin: miter; stroke-miterlimit: 4; is-custom-font: none; font-file-url: none; fill: rgb(152,194,211); fill-rule: nonzero; opacity: 1;" transform=" translate(-147.468, -117.0215)" d="M 79.509 149.203 c -1.984 0 -3.862 -1.189 -4.644 -3.145 c -1.025 -2.564 0.222 -5.474 2.786 -6.5 l 135.92 -54.36 c 2.563 -1.023 5.474 0.221 6.5 2.786 c 1.025 2.564 -0.222 5.474 -2.786 6.5 l -135.92 54.36 C 80.755 149.087 80.127 149.203 79.509 149.203 z" stroke-linecap="round"/>
</g>
		<g transform="matrix(1 0 0 1 139.1835 74.0221)" id="550235">
<path style="stroke: none; stroke-width: 1; stroke-dasharray: none; stroke-linecap: butt; stroke-dashoffset: 0; stroke-linejoin: miter; stroke-miterlimit: 4; is-custom-font: none; font-file-url: none; fill: rgb(174,211,229); fill-rule: nonzero; opacity: 1;" transform=" translate(-395.1835, -330.022)" d="M 363.469 430.163 c -0.524 0 -1.058 -0.083 -1.582 -0.258 c -2.62 -0.873 -4.035 -3.705 -3.162 -6.324 l 63.431 -190.28 c 0.874 -2.62 3.708 -4.035 6.324 -3.162 c 2.62 0.873 4.035 3.705 3.162 6.324 l -63.431 190.28 C 367.513 428.838 365.562 430.163 363.469 430.163 z" stroke-linecap="round"/>
</g>
		<g transform="matrix(1 0 0 1 -165.125 166.858)" id="351263">
<path style="stroke: none; stroke-width: 1; stroke-dasharray: none; stroke-linecap: butt; stroke-dashoffset: 0; stroke-linejoin: miter; stroke-miterlimit: 4; is-custom-font: none; font-file-url: none; fill: rgb(174,211,229); fill-rule: nonzero; opacity: 1;" transform=" translate(-90.875, -422.858)" d="M 122.59 427.858 h -63.43 c -2.761 0 -5 -2.238 -5 -5 s 2.239 -5 5 -5 h 63.43 c 2.761 0 5 2.238 5 5 S 125.352 427.858 122.59 427.858 z" stroke-linecap="round"/>
</g>
		<g transform="matrix(1 0 0 1 -174.185 130.618)" id="13856">
<path style="stroke: none; stroke-width: 1; stroke-dasharray: none; stroke-linecap: butt; stroke-dashoffset: 0; stroke-linejoin: miter; stroke-miterlimit: 4; is-custom-font: none; font-file-url: none; fill: rgb(174,211,229); fill-rule: nonzero; opacity: 1;" transform=" translate(-81.815, -386.618)" d="M 104.47 391.618 h -45.31 c -2.761 0 -5 -2.238 -5 -5 s 2.239 -5 5 -5 h 45.31 c 2.761 0 5 2.238 5 5 S 107.231 391.618 104.47 391.618 z" stroke-linecap="round"/>
</g>
</g>
</g>
</svg>